<svg width="500" height="500" xmlns="http://www.w3.org/2000/svg" xmlns:xlink="http://www.w3.org/1999/xlink" overflow="hidden"><defs><filter id="fx0" x="-10%" y="-10%" width="120%" height="120%" filterUnits="userSpaceOnUse" primitiveUnits="userSpaceOnUse"><feComponentTransfer color-interpolation-filters="sRGB"><feFuncR type="discrete" tableValues="0 0"/><feFuncG type="discrete" tableValues="0 0"/><feFuncB type="discrete" tableValues="0 0"/><feFuncA type="linear" slope="0.4" intercept="0"/></feComponentTransfer><feGaussianBlur stdDeviation="2.22222 2.22222"/></filter><filter id="fx1" x="-10%" y="-10%" width="120%" height="120%" filterUnits="userSpaceOnUse" primitiveUnits="userSpaceOnUse"><feComponentTransfer color-interpolation-filters="sRGB"><feFuncR type="discrete" tableValues="0 0"/><feFuncG type="discrete" tableValues="0 0"/><feFuncB type="discrete" tableValues="0 0"/><feFuncA type="linear" slope="0.4" intercept="0"/></feComponentTransfer><feGaussianBlur stdDeviation="2.22222 2.22222"/></filter><filter id="fx2" x="-10%" y="-10%" width="120%" height="120%" filterUnits="userSpaceOnUse" primitiveUnits="userSpaceOnUse"><feComponentTransfer color-interpolation-filters="sRGB"><feFuncR type="discrete" tableValues="0 0"/><feFuncG type="discrete" tableValues="0 0"/><feFuncB type="discrete" tableValues="0 0"/><feFuncA type="linear" slope="0.4" intercept="0"/></feComponentTransfer><feGaussianBlur stdDeviation="2.22222 2.22222"/></filter><filter id="fx3" x="-10%" y="-10%" width="120%" height="120%" filterUnits="userSpaceOnUse" primitiveUnits="userSpaceOnUse"><feComponentTransfer color-interpolation-filters="sRGB"><feFuncR type="discrete" tableValues="0 0"/><feFuncG type="discrete" tableValues="0 0"/><feFuncB type="discrete" tableValues="0 0"/><feFuncA type="linear" slope="0.4" intercept="0"/></feComponentTransfer><feGaussianBlur stdDeviation="2.22222 2.22222"/></filter><filter id="fx4" x="-10%" y="-10%" width="120%" height="120%" filterUnits="userSpaceOnUse" primitiveUnits="userSpaceOnUse"><feComponentTransfer color-interpolation-filters="sRGB"><feFuncR type="discrete" tableValues="0 0"/><feFuncG type="discrete" tableValues="0 0"/><feFuncB type="discrete" tableValues="0 0"/><feFuncA type="linear" slope="0.4" intercept="0"/></feComponentTransfer><feGaussianBlur stdDeviation="2.22222 2.22222"/></filter><filter id="fx5" x="-10%" y="-10%" width="120%" height="120%" filterUnits="userSpaceOnUse" primitiveUnits="userSpaceOnUse"><feComponentTransfer color-interpolation-filters="sRGB"><feFuncR type="discrete" tableValues="0 0"/><feFuncG type="discrete" tableValues="0 0"/><feFuncB type="discrete" tableValues="0 0"/><feFuncA type="linear" slope="0.4" intercept="0"/></feComponentTransfer><feGaussianBlur stdDeviation="2.22222 2.22222"/></filter><filter id="fx6" x="-10%" y="-10%" width="120%" height="120%" filterUnits="userSpaceOnUse" primitiveUnits="userSpaceOnUse"><feComponentTransfer color-interpolation-filters="sRGB"><feFuncR type="discrete" tableValues="0 0"/><feFuncG type="discrete" tableValues="0 0"/><feFuncB type="discrete" tableValues="0 0"/><feFuncA type="linear" slope="0.4" intercept="0"/></feComponentTransfer><feGaussianBlur stdDeviation="2.22222 2.22222"/></filter><filter id="fx7" x="-10%" y="-10%" width="120%" height="120%" filterUnits="userSpaceOnUse" primitiveUnits="userSpaceOnUse"><feComponentTransfer color-interpolation-filters="sRGB"><feFuncR type="discrete" tableValues="0 0"/><feFuncG type="discrete" tableValues="0 0"/><feFuncB type="discrete" tableValues="0 0"/><feFuncA type="linear" slope="0.4" intercept="0"/></feComponentTransfer><feGaussianBlur stdDeviation="2.22222 2.22222"/></filter><filter id="fx8" x="-10%" y="-10%" width="120%" height="120%" filterUnits="userSpaceOnUse" primitiveUnits="userSpaceOnUse"><feComponentTransfer color-interpolation-filters="sRGB"><feFuncR type="discrete" tableValues="0 0"/><feFuncG type="discrete" tableValues="0 0"/><feFuncB type="discrete" tableValues="0 0"/><feFuncA type="linear" slope="0.4" intercept="0"/></feComponentTransfer><feGaussianBlur stdDeviation="2.22222 2.22222"/></filter><clipPath id="clip9"><rect x="0" y="0" width="500" height="500"/></clipPath><clipPath id="clip10"><rect x="-2" y="-2" width="100" height="100"/></clipPath><clipPath id="clip11"><rect x="0" y="0" width="95" height="95"/></clipPath><clipPath id="clip12"><rect x="-2" y="-2" width="397" height="100"/></clipPath><clipPath id="clip13"><rect x="0" y="0" width="394" height="95"/></clipPath><clipPath id="clip14"><rect x="-2" y="-2" width="100" height="100"/></clipPath><clipPath id="clip15"><rect x="0" y="0" width="95" height="95"/></clipPath><clipPath id="clip16"><rect x="-2" y="-2" width="100" height="100"/></clipPath><clipPath id="clip17"><rect x="0" y="0" width="95" height="95"/></clipPath><clipPath id="clip18"><rect x="-2" y="-2" width="100" height="100"/></clipPath><clipPath id="clip19"><rect x="0" y="0" width="95" height="95"/></clipPath><clipPath id="clip20"><rect x="-2" y="-2" width="397" height="97"/></clipPath><clipPath id="clip21"><rect x="0" y="0" width="394" height="94"/></clipPath><clipPath id="clip22"><rect x="-2" y="-2" width="397" height="100"/></clipPath><clipPath id="clip23"><rect x="0" y="0" width="394" height="95"/></clipPath><clipPath id="clip24"><rect x="-2" y="-2" width="397" height="100"/></clipPath><clipPath id="clip25"><rect x="0" y="0" width="394" height="95"/></clipPath><clipPath id="clip26"><rect x="-2" y="-2" width="115" height="104"/></clipPath><clipPath id="clip27"><rect x="0" y="0" width="111" height="99"/></clipPath><clipPath id="clip28"><rect x="8" y="8" width="95" height="83"/></clipPath><clipPath id="clip29"><rect x="8" y="8" width="95" height="83"/></clipPath><clipPath id="clip30"><rect x="8" y="8" width="95" height="83"/></clipPath><clipPath id="clip31"><rect x="18" y="50" width="93" height="81"/></clipPath><clipPath id="clip32"><rect x="18" y="50" width="93" height="81"/></clipPath><clipPath id="clip33"><rect x="18" y="50" width="93" height="81"/></clipPath></defs><g clip-path="url(#clip9)"><rect x="0" y="0" width="500" height="500" fill="#FFFFFF" fill-opacity="0"/><g clip-path="url(#clip10)" filter="url(#fx0)" transform="matrix(1 0 0 1 0 64)"><g clip-path="url(#clip11)"><path d="M31.7571 8.23 63.2429 8.23C69.4827 8.23 75.4669 10.7087 79.8791 15.1209 84.2913 19.5331 86.77 25.5173 86.77 31.7571L86.77 63.2429C86.77 69.4827 84.2913 75.4669 79.8791 79.8791 75.4669 84.2913 69.4827 86.77 63.2429 86.77L31.7571 86.77C25.5173 86.77 19.5331 84.2913 15.1209 79.8791 10.7087 75.4669 8.23 69.4827 8.23 63.2429L8.23 31.7571C8.23 25.5173 10.7087 19.5331 15.1209 15.1209 19.5331 10.7087 25.5173 8.23 31.7571 8.23Z" fill="#C6D9F1" fill-rule="evenodd"/></g></g><path d="M32.0658 73 62.9342 73C69.0517 73 74.9186 75.4301 79.2442 79.7558 83.5699 84.0814 86 89.9483 86 96.0658L86 126.934C86 133.052 83.5699 138.919 79.2442 143.244 74.9186 147.57 69.0517 150 62.9342 150L32.0658 150C25.9483 150 20.0814 147.57 15.7558 143.244 11.4301 138.919 9 133.052 9 126.934L9 96.0658C9 89.9483 11.4301 84.0814 15.7558 79.7558 20.0814 75.4301 25.9483 73 32.0658 73Z" fill="#C6D9F1" fill-rule="evenodd"/><g clip-path="url(#clip12)" filter="url(#fx1)" transform="translate(109 364)"><g clip-path="url(#clip13)"><path d="M18.391 8.23001 375.609 8.23001C381.182 8.23001 385.7 12.7625 385.7 18.3536L385.7 76.6464C385.7 82.2377 381.182 86.77 375.609 86.77L18.391 86.77C12.818 86.77 8.3 82.2377 8.3 76.6464L8.3 18.3536C8.3 12.7625 12.818 8.23001 18.391 8.23001Z" fill="#17375E" fill-rule="evenodd"/></g></g><path d="M130.893 373 481.107 373C486.571 373 491 377.444 491 382.925L491 440.075C491 445.557 486.571 450 481.107 450L130.893 450C125.429 450 121 445.557 121 440.075L121 382.925C121 377.444 125.429 373 130.893 373Z" fill="#17375E" fill-rule="evenodd"/><g clip-path="url(#clip14)" filter="url(#fx2)" transform="matrix(1 0 0 1 0 164)"><g clip-path="url(#clip15)"><path d="M31.7571 8.23 63.2429 8.23C69.4827 8.23 75.4669 10.7087 79.8791 15.1209 84.2913 19.5331 86.77 25.5173 86.77 31.7571L86.77 63.2429C86.77 69.4827 84.2913 75.4669 79.8791 79.8791 75.4669 84.2913 69.4827 86.77 63.2429 86.77L31.7571 86.77C25.5173 86.77 19.5331 84.2913 15.1209 79.8791 10.7087 75.4669 8.23 69.4827 8.23 63.2429L8.23 31.7571C8.23 25.5173 10.7087 19.5331 15.1209 15.1209 19.5331 10.7087 25.5173 8.23 31.7571 8.23Z" fill="#8EB4E3" fill-rule="evenodd"/></g></g><path d="M32.0658 173 62.9342 173C69.0517 173 74.9186 175.43 79.2442 179.756 83.5699 184.081 86 189.948 86 196.066L86 226.934C86 233.052 83.5699 238.919 79.2442 243.244 74.9186 247.57 69.0517 250 62.9342 250L32.0658 250C25.9483 250 20.0814 247.57 15.7558 243.244 11.4301 238.919 9 233.052 9 226.934L9 196.066C9 189.948 11.4301 184.081 15.7558 179.756 20.0814 175.43 25.9483 173 32.0658 173Z" fill="#8EB4E3" fill-rule="evenodd"/><g clip-path="url(#clip16)" filter="url(#fx3)" transform="matrix(1 0 0 1 0 268)"><g clip-path="url(#clip17)"><path d="M31.7571 8.23001 63.2429 8.23001C69.4827 8.23001 75.4669 10.7087 79.8791 15.1209 84.2913 19.5331 86.77 25.5173 86.77 31.7571L86.77 63.2429C86.77 69.4827 84.2913 75.4669 79.8791 79.8791 75.4669 84.2913 69.4827 86.77 63.2429 86.77L31.7571 86.77C25.5173 86.77 19.5331 84.2913 15.1209 79.8791 10.7087 75.4669 8.23 69.4827 8.23 63.2429L8.23 31.7571C8.23 25.5173 10.7087 19.5331 15.1209 15.1209 19.5331 10.7087 25.5173 8.23001 31.7571 8.23001Z" fill="#558ED5" fill-rule="evenodd"/></g></g><path d="M32.0658 277 62.9342 277C69.0517 277 74.9186 279.43 79.2442 283.756 83.5699 288.081 86 293.948 86 300.066L86 330.934C86 337.052 83.5699 342.919 79.2442 347.244 74.9186 351.57 69.0517 354 62.9342 354L32.0658 354C25.9483 354 20.0814 351.57 15.7558 347.244 11.4301 342.919 9 337.052 9 330.934L9 300.066C9 293.948 11.4301 288.081 15.7558 283.756 20.0814 279.43 25.9483 277 32.0658 277Z" fill="#558ED5" fill-rule="evenodd"/><g clip-path="url(#clip18)" filter="url(#fx4)" transform="matrix(1 0 0 1 0 364)"><g clip-path="url(#clip19)"><path d="M31.7571 8.23001 63.2429 8.23001C69.4827 8.23001 75.4669 10.7087 79.8791 15.1209 84.2913 19.5331 86.77 25.5173 86.77 31.7571L86.77 63.2429C86.77 69.4827 84.2913 75.4669 79.8791 79.8791 75.4669 84.2913 69.4827 86.77 63.2429 86.77L31.7571 86.77C25.5173 86.77 19.5331 84.2913 15.1209 79.8791 10.7087 75.4669 8.23 69.4827 8.23 63.2429L8.23 31.7571C8.23 25.5173 10.7087 19.5331 15.1209 15.1209 19.5331 10.7087 25.5173 8.23001 31.7571 8.23001Z" fill="#17375E" fill-rule="evenodd"/></g></g><path d="M32.0658 373 62.9342 373C69.0517 373 74.9186 375.43 79.2442 379.756 83.5699 384.081 86 389.948 86 396.066L86 426.934C86 433.052 83.5699 438.919 79.2442 443.244 74.9186 447.57 69.0517 450 62.9342 450L32.0658 450C25.9483 450 20.0814 447.57 15.7558 443.244 11.4301 438.919 9 433.052 9 426.934L9 396.066C9 389.948 11.4301 384.081 15.7558 379.756 20.0814 375.43 25.9483 373 32.0658 373Z" fill="#17375E" fill-rule="evenodd"/><g clip-path="url(#clip20)" filter="url(#fx5)" transform="translate(109 265)"><g clip-path="url(#clip21)"><path d="M18.391 8.23999 375.609 8.23999C381.182 8.23999 385.7 12.7137 385.7 18.2321L385.7 75.7679C385.7 81.2865 381.182 85.76 375.609 85.76L18.391 85.76C12.818 85.76 8.3 81.2865 8.3 75.7679L8.3 18.2321C8.3 12.7137 12.818 8.23999 18.391 8.23999Z" fill="#558ED5" fill-rule="evenodd"/></g></g><path d="M130.893 274 481.107 274C486.571 274 491 278.386 491 283.796L491 340.204C491 345.614 486.571 350 481.107 350L130.893 350C125.429 350 121 345.614 121 340.204L121 283.796C121 278.386 125.429 274 130.893 274Z" fill="#558ED5" fill-rule="evenodd"/><g clip-path="url(#clip22)" filter="url(#fx6)" transform="translate(109 164)"><g clip-path="url(#clip23)"><path d="M18.391 8.23 375.609 8.23C381.182 8.23 385.7 12.7625 385.7 18.3536L385.7 76.6464C385.7 82.2377 381.182 86.77 375.609 86.77L18.391 86.77C12.818 86.77 8.3 82.2377 8.3 76.6464L8.3 18.3536C8.3 12.7625 12.818 8.23 18.391 8.23Z" fill="#8EB4E3" fill-rule="evenodd"/></g></g><path d="M130.893 173 481.107 173C486.571 173 491 177.444 491 182.925L491 240.075C491 245.557 486.571 250 481.107 250L130.893 250C125.429 250 121 245.557 121 240.075L121 182.925C121 177.444 125.429 173 130.893 173Z" fill="#8EB4E3" fill-rule="evenodd"/><g clip-path="url(#clip24)" filter="url(#fx7)" transform="translate(109 64)"><g clip-path="url(#clip25)"><path d="M18.391 8.23 375.609 8.23C381.182 8.23 385.7 12.7625 385.7 18.3536L385.7 76.6464C385.7 82.2377 381.182 86.77 375.609 86.77L18.391 86.77C12.818 86.77 8.3 82.2377 8.3 76.6464L8.3 18.3536C8.3 12.7625 12.818 8.23 18.391 8.23Z" fill="#C6D9F1" fill-rule="evenodd"/></g></g><path d="M130.893 73 481.107 73C486.571 73 491 77.4436 491 82.9251L491 140.075C491 145.557 486.571 150 481.107 150L130.893 150C125.429 150 121 145.557 121 140.075L121 82.9251C121 77.4436 125.429 73 130.893 73Z" fill="#C6D9F1" fill-rule="evenodd"/><g clip-path="url(#clip26)" filter="url(#fx8)" transform="translate(9 41)"><g clip-path="url(#clip27)"><g clip-path="url(#clip28)"><g clip-path="url(#clip29)"><g clip-path="url(#clip30)"><path d="M94.1891 1.23768C92.6896 0.849776 91.19 0.461862 89.6905 0.0742742 89.5751 0.00875724 89.4306-0.0188118 89.2645 0.0126493 89.1882 0.0210822 89.1176 0.0421643 89.0545 0.0733011 88.7622 0.166711 88.4749 0.271798 88.1885 0.377534 87.2112 0.739498 86.2497 1.13682 85.3023 1.55911 83.8758 2.19417 82.48 2.88534 81.1106 3.61738 79.2691 4.6024 77.4761 5.663 75.7308 6.78555 73.5505 8.18703 71.442 9.6842 69.4081 11.2595 67.0349 13.0975 64.7638 15.0459 62.5963 17.0863 60.0991 19.4371 57.7396 21.9106 55.5179 24.4832 52.9964 27.4023 50.6449 30.4427 48.4689 33.5865 46.0156 37.1306 43.7822 40.8015 41.7557 44.5652 39.4736 48.8036 37.4511 53.1602 35.6646 57.5936 35.3169 58.4563 34.9789 59.3224 34.6491 60.1909 33.496 59.2929 32.343 58.3947 31.1903 57.497 28.1677 55.1426 25.1456 52.7882 22.123 50.4338 19.3453 48.2701 16.5677 46.1068 13.7904 43.943 13.0843 43.3933 12.3782 42.8432 11.6724 42.2934 11.4917 42.153 11.3341 42.0178 11.1103 41.9338 10.4101 41.67 9.6852 41.3282 8.95635 41.1437 8.67969 41.0736 8.3317 41.1693 8.05178 41.2125 7.56429 41.287 7.07681 41.3617 6.58932 41.4366 6.28217 41.4836 5.86668 41.4817 5.61046 41.6629 5.46937 41.7629 5.40255 41.891 5.31855 42.0282 4.53981 43.3012 3.76074 44.5742 2.982 45.8473 2.11373 47.2663 1.24547 48.6853 0.376884 50.1045 0.174495 50.4358-0.0577327 50.7118 0.0129737 51.1116 0.0953566 51.5768 0.195253 52.0396 0.286069 52.5034 0.634411 54.2763 0.982427 56.0491 1.33045 57.8223 1.4378 58.3685 1.52148 58.924 1.65317 59.4658 1.73036 59.7836 1.96648 59.949 2.28077 60.0647 2.55516 60.166 2.82955 60.2675 3.10265 60.3713 3.19995 60.4079 3.29693 60.4449 3.39423 60.4822 3.4471 60.5026 3.50029 60.5227 3.55316 60.5432 3.58105 60.5539 3.60862 60.5646 3.63619 60.5753 3.64074 60.5769 3.64365 60.5779 3.64722 60.5795 3.92226 60.6862 4.19698 60.7939 4.47137 60.9025 6.02918 61.5198 7.57369 62.1652 9.10589 62.834 13.706 64.8417 18.2053 67.0537 22.5437 69.5034 27.6498 72.3868 32.5713 75.605 36.9386 79.3848 37.9855 80.291 38.9972 81.2313 39.9667 82.2076 40.3024 82.5458 40.9984 82.3827 41.1054 81.9319 41.2407 81.3607 41.3937 80.7931 41.5482 80.2262 41.9766 78.6492 42.4423 77.081 42.9321 75.5196 43.6787 73.1403 44.4841 70.7765 45.3413 68.4289 46.4295 65.4485 47.602 62.4937 48.8591 59.5699 50.3041 56.209 51.8635 52.8897 53.5449 49.6226 55.3907 46.0358 57.3828 42.5117 59.542 39.0747 61.7919 35.493 64.2234 32.0054 66.8659 28.6555 69.5544 25.248 72.4689 21.988 75.6341 18.9429 78.8043 15.8924 82.227 13.0502 85.9242 10.5443 87.7916 9.27876 89.7254 8.09621 91.7231 7.01096 92.1814 6.76187 92.8698 6.54034 93.0865 6.07492 93.1604 5.91728 93.2135 5.74863 93.2758 5.58711 93.5623 4.84825 93.8487 4.10973 94.1352 3.37088 94.312 2.91583 94.4881 2.46078 94.6649 2.00572 94.7886 1.68625 94.5229 1.32396 94.1891 1.23768" fill="#C00000" transform="matrix(1 0 0 1.00065 8.13475 8.20662)"/></g></g></g></g></g><g clip-path="url(#clip31)"><g clip-path="url(#clip32)"><g clip-path="url(#clip33)"><path d="M92.3423 1.21341C90.8722 0.833114 89.402 0.452806 87.9319 0.0728178 87.8187 0.00858553 87.6771-0.0184429 87.5143 0.0124013 87.4394 0.0206688 87.3702 0.0413376 87.3083 0.0718638 87.0218 0.163442 86.7401 0.266469 86.4593 0.370131 85.5012 0.724998 84.5585 1.11453 83.6297 1.52853 82.2312 2.15115 80.8627 2.82877 79.5202 3.54645 77.7148 4.51216 75.957 5.55196 74.2458 6.6525 72.1084 8.0265 70.0412 9.49431 68.0472 11.0387 65.7205 12.8407 63.4939 14.7509 61.3689 16.7513 58.9207 19.056 56.6075 21.481 54.4293 24.0032 51.9573 26.865 49.6519 29.8458 47.5185 32.928 45.1133 36.4026 42.9237 40.0014 40.937 43.6914 38.6996 47.8467 36.7167 52.1178 34.9653 56.4644 34.6244 57.3101 34.293 58.1592 33.9697 59.0107 32.8392 58.1303 31.7088 57.2497 30.5788 56.3696 27.6154 54.0613 24.6525 51.7531 21.6892 49.4449 18.966 47.3237 16.2428 45.2027 13.52 43.0814 12.8277 42.5424 12.1354 42.0031 11.4435 41.4642 11.2664 41.3265 11.1119 41.1939 10.8925 41.1115 10.2059 40.853 9.49529 40.5179 8.78073 40.337 8.5095 40.2683 8.16833 40.362 7.8939 40.4044 7.41597 40.4775 6.93805 40.5507 6.46012 40.6241 6.15899 40.6702 5.75165 40.6683 5.50045 40.846 5.36213 40.944 5.29662 41.0696 5.21427 41.2041 4.45079 42.4522 3.687 43.7002 2.92353 44.9483 2.07228 46.3395 1.22105 47.7307 0.369495 49.1221 0.171074 49.4468-0.0566007 49.7174 0.0127193 50.1094 0.0934868 50.5655 0.191425 51.0192 0.28046 51.4739 0.621972 53.2121 0.963164 54.9501 1.30436 56.6885 1.40961 57.224 1.49165 57.7687 1.62076 58.2998 1.69643 58.6114 1.92792 58.7735 2.23605 58.887 2.50506 58.9862 2.77407 59.0858 3.04181 59.1875 3.13721 59.2234 3.23228 59.2597 3.32768 59.2963 3.37951 59.3163 3.43165 59.336 3.48349 59.356 3.51084 59.3665 3.53786 59.3771 3.5649 59.3876 3.56935 59.3891 3.57221 59.3901 3.57571 59.3917 3.84535 59.4963 4.11469 59.6019 4.3837 59.7084 5.91096 60.3135 7.42519 60.9463 8.92734 61.602 13.4372 63.5703 17.8483 65.7389 22.1017 68.1406 27.1076 70.9675 31.9327 74.1225 36.2143 77.8282 37.2407 78.7167 38.2325 79.6385 39.183 80.5956 39.5121 80.9273 40.1945 80.7674 40.2994 80.3254 40.4321 79.7654 40.5821 79.2089 40.7335 78.6531 41.1535 77.1071 41.6101 75.5696 42.0903 74.0388 42.8223 71.7062 43.6118 69.3887 44.4522 67.0872 45.5191 64.1652 46.6686 61.2684 47.9011 58.4018 49.3177 55.1069 50.8465 51.8526 52.495 48.6496 54.3046 45.1331 56.2577 41.6782 58.3745 38.3086 60.5803 34.7971 62.9642 31.3778 65.5548 28.0937 68.1906 24.753 71.0479 21.5569 74.1511 18.5714 77.2591 15.5808 80.6147 12.7943 84.2394 10.3376 86.0702 9.09682 87.9661 7.93746 89.9246 6.87349 90.374 6.62928 91.0488 6.4121 91.2613 5.9558 91.3337 5.80126 91.3858 5.63591 91.4469 5.47756 91.7277 4.75319 92.0086 4.02915 92.2894 3.30479 92.4628 2.85866 92.6354 2.41253 92.8087 1.9664 92.93 1.65319 92.6695 1.298 92.3423 1.21341" fill="#C00000" transform="matrix(1 0 0 1.00065 18.0635 50.0163)"/></g></g></g></g></svg>